<?xml version="1.0" encoding="UTF-8" standalone="no"?>
<!DOCTYPE svg PUBLIC "-//W3C//DTD SVG 1.1//EN"
 "http://www.w3.org/Graphics/SVG/1.1/DTD/svg11.dtd">
<!-- Generated by graphviz version 2.40.1 (0)
 -->
<!-- Title: G Pages: 1 -->
<svg width="1714pt" height="415pt"
 viewBox="0.00 0.00 1713.50 415.00" xmlns="http://www.w3.org/2000/svg" xmlns:xlink="http://www.w3.org/1999/xlink">
<g id="graph0" class="graph" transform="scale(1 1) rotate(0) translate(4 411)">
<title>G</title>
<polygon fill="#ffffff" stroke="transparent" points="-4,4 -4,-411 1709.5,-411 1709.5,4 -4,4"/>
<text text-anchor="middle" x="852.75" y="-391.8" font-family="Times,serif" font-size="14.00" fill="#000000">Research in Virtual Machines for Dynamically&#45;Typed Languages</text>
<!-- pic -->
<g id="node1" class="node">
<title>pic</title>
<polygon fill="none" stroke="#000000" points="392.5,-297 88.5,-297 88.5,-261 392.5,-261 392.5,-297"/>
<text text-anchor="middle" x="240.5" y="-275.3" font-family="Times,serif" font-size="14.00" fill="#000000">SELF Polymorphic Inline Caches (1991)</text>
</g>
<!-- mpic -->
<g id="node2" class="node">
<title>mpic</title>
<polygon fill="none" stroke="#000000" points="481,-210 0,-210 0,-174 481,-174 481,-210"/>
<text text-anchor="middle" x="240.5" y="-188.3" font-family="Times,serif" font-size="14.00" fill="#000000">Truffle Dispatch Chains (Multidimensional Inline Caches) (2015)</text>
</g>
<!-- pic&#45;&gt;mpic -->
<g id="edge1" class="edge">
<title>pic&#45;&gt;mpic</title>
<path fill="none" stroke="#000000" d="M240.5,-260.9735C240.5,-249.1918 240.5,-233.5607 240.5,-220.1581"/>
<polygon fill="#000000" stroke="#000000" points="244.0001,-220.0033 240.5,-210.0034 237.0001,-220.0034 244.0001,-220.0033"/>
<text text-anchor="middle" x="401.5" y="-231.8" font-family="Times,serif" font-size="14.00" fill="#000000">+ cache for metaprogramming accesses, etc</text>
</g>
<!-- tso -->
<g id="node6" class="node">
<title>tso</title>
<polygon fill="none" stroke="#000000" points="763,-123 454,-123 454,-87 763,-87 763,-123"/>
<text text-anchor="middle" x="608.5" y="-101.3" font-family="Times,serif" font-size="14.00" fill="#000000">Truffle Thread&#45;Safe Object Model (2016)</text>
</g>
<!-- mpic&#45;&gt;tso -->
<g id="edge2" class="edge">
<title>mpic&#45;&gt;tso</title>
<path fill="none" stroke="#000000" d="M316.7498,-173.9735C376.7005,-159.8004 460.2139,-140.0568 522.5346,-125.3233"/>
<polygon fill="#000000" stroke="#000000" points="523.4214,-128.7103 532.3478,-123.0034 521.8108,-121.898 523.4214,-128.7103"/>
<text text-anchor="middle" x="519" y="-144.8" font-family="Times,serif" font-size="14.00" fill="#000000">for efficient sharing</text>
</g>
<!-- om -->
<g id="node3" class="node">
<title>om</title>
<ellipse fill="none" stroke="#000000" cx="601.5" cy="-366" rx="116.1796" ry="18"/>
<text text-anchor="middle" x="601.5" y="-362.3" font-family="Times,serif" font-size="14.00" fill="#000000">Object Representation</text>
</g>
<!-- maps -->
<g id="node4" class="node">
<title>maps</title>
<polygon fill="none" stroke="#000000" points="677,-297 526,-297 526,-261 677,-261 677,-297"/>
<text text-anchor="middle" x="601.5" y="-275.3" font-family="Times,serif" font-size="14.00" fill="#000000">SELF Maps (1989)</text>
</g>
<!-- om&#45;&gt;maps -->
<g id="edge3" class="edge">
<title>om&#45;&gt;maps</title>
<path fill="none" stroke="#000000" d="M601.5,-347.9735C601.5,-336.1918 601.5,-320.5607 601.5,-307.1581"/>
<polygon fill="#000000" stroke="#000000" points="605.0001,-307.0033 601.5,-297.0034 598.0001,-307.0034 605.0001,-307.0033"/>
<text text-anchor="middle" x="768.5" y="-318.8" font-family="Times,serif" font-size="14.00" fill="#000000">+ efficient access and lower memory footprint</text>
</g>
<!-- tosm -->
<g id="node5" class="node">
<title>tosm</title>
<polygon fill="none" stroke="#000000" points="717.5,-210 499.5,-210 499.5,-174 717.5,-174 717.5,-210"/>
<text text-anchor="middle" x="608.5" y="-188.3" font-family="Times,serif" font-size="14.00" fill="#000000">Truffle Object Model (2014)</text>
</g>
<!-- maps&#45;&gt;tosm -->
<g id="edge4" class="edge">
<title>maps&#45;&gt;tosm</title>
<path fill="none" stroke="#000000" d="M602.9504,-260.9735C603.8984,-249.1918 605.156,-233.5607 606.2344,-220.1581"/>
<polygon fill="#000000" stroke="#000000" points="609.7381,-220.2519 607.0515,-210.0034 602.7606,-219.6904 609.7381,-220.2519"/>
<text text-anchor="middle" x="805" y="-231.8" font-family="Times,serif" font-size="14.00" fill="#000000">+ unboxed values, final assumption, type specialization</text>
</g>
<!-- tosm&#45;&gt;tso -->
<g id="edge5" class="edge">
<title>tosm&#45;&gt;tso</title>
<path fill="none" stroke="#000000" d="M608.5,-173.9735C608.5,-162.1918 608.5,-146.5607 608.5,-133.1581"/>
<polygon fill="#000000" stroke="#000000" points="612.0001,-133.0033 608.5,-123.0034 605.0001,-133.0034 612.0001,-133.0033"/>
<text text-anchor="middle" x="664.5" y="-144.8" font-family="Times,serif" font-size="14.00" fill="#000000">+ thread safety</text>
</g>
<!-- tsc -->
<g id="node10" class="node">
<title>tsc</title>
<polygon fill="none" stroke="#000000" points="1107,-36 814,-36 814,0 1107,0 1107,-36"/>
<text text-anchor="middle" x="960.5" y="-14.3" font-family="Times,serif" font-size="14.00" fill="#000000">Truffle Thread&#45;Safe Collections (2018)</text>
</g>
<!-- tso&#45;&gt;tsc -->
<g id="edge9" class="edge">
<title>tso&#45;&gt;tsc</title>
<path fill="none" stroke="#000000" d="M672.9568,-86.9504C709.6535,-76.8624 756.5385,-64.2889 798.5,-54 820.2179,-48.6748 843.6575,-43.2696 865.7786,-38.3223"/>
<polygon fill="#000000" stroke="#000000" points="866.8378,-41.6723 875.8386,-36.0834 865.3171,-34.8395 866.8378,-41.6723"/>
<text text-anchor="middle" x="874" y="-57.8" font-family="Times,serif" font-size="14.00" fill="#000000">tracking reachability</text>
</g>
<!-- rarc -->
<g id="node13" class="node">
<title>rarc</title>
<polygon fill="none" stroke="#000000" points="796,-36 383,-36 383,0 796,0 796,-36"/>
<text text-anchor="middle" x="589.5" y="-14.3" font-family="Times,serif" font-size="14.00" fill="#000000">Reachability for Optimizing Reference Counting (2017)</text>
</g>
<!-- tso&#45;&gt;rarc -->
<g id="edge6" class="edge">
<title>tso&#45;&gt;rarc</title>
<path fill="none" stroke="#000000" d="M604.5632,-86.9735C601.9902,-75.1918 598.5765,-59.5607 595.6495,-46.1581"/>
<polygon fill="#000000" stroke="#000000" points="598.9849,-45.0263 593.4318,-36.0034 592.1461,-46.5199 598.9849,-45.0263"/>
</g>
<!-- glsp -->
<g id="node7" class="node">
<title>glsp</title>
<polygon fill="none" stroke="#000000" points="1105.5,-123 787.5,-123 787.5,-87 1105.5,-87 1105.5,-123"/>
<text text-anchor="middle" x="946.5" y="-101.3" font-family="Times,serif" font-size="14.00" fill="#000000">Truffle Guest&#45;Language Safepoints (2015)</text>
</g>
<!-- glsp&#45;&gt;tsc -->
<g id="edge10" class="edge">
<title>glsp&#45;&gt;tsc</title>
<path fill="none" stroke="#000000" d="M949.4008,-86.9735C951.2967,-75.1918 953.8121,-59.5607 955.9688,-46.1581"/>
<polygon fill="#000000" stroke="#000000" points="959.4696,-46.4324 957.6029,-36.0034 952.5585,-45.3203 959.4696,-46.4324"/>
<text text-anchor="middle" x="1036" y="-57.8" font-family="Times,serif" font-size="14.00" fill="#000000">global synchronization</text>
</g>
<!-- collections -->
<g id="node8" class="node">
<title>collections</title>
<ellipse fill="none" stroke="#000000" cx="1312.5" cy="-192" rx="137.2758" ry="18"/>
<text text-anchor="middle" x="1312.5" y="-188.3" font-family="Times,serif" font-size="14.00" fill="#000000">Collections Representation</text>
</g>
<!-- ss -->
<g id="node9" class="node">
<title>ss</title>
<polygon fill="none" stroke="#000000" points="1501,-123 1124,-123 1124,-87 1501,-87 1501,-123"/>
<text text-anchor="middle" x="1312.5" y="-101.3" font-family="Times,serif" font-size="14.00" fill="#000000">RPython Storage Strategies for Collections (2013)</text>
</g>
<!-- collections&#45;&gt;ss -->
<g id="edge11" class="edge">
<title>collections&#45;&gt;ss</title>
<path fill="none" stroke="#000000" d="M1312.5,-173.9735C1312.5,-162.1918 1312.5,-146.5607 1312.5,-133.1581"/>
<polygon fill="#000000" stroke="#000000" points="1316.0001,-133.0033 1312.5,-123.0034 1309.0001,-133.0034 1316.0001,-133.0033"/>
<text text-anchor="middle" x="1509" y="-144.8" font-family="Times,serif" font-size="14.00" fill="#000000">+ adapt representation dynamically to unboxed values</text>
</g>
<!-- ss&#45;&gt;tsc -->
<g id="edge12" class="edge">
<title>ss&#45;&gt;tsc</title>
<path fill="none" stroke="#000000" d="M1247.6926,-86.9892C1210.7991,-76.9136 1163.6675,-64.3395 1121.5,-54 1099.7892,-48.6765 1076.3521,-43.2529 1054.2592,-38.2851"/>
<polygon fill="#000000" stroke="#000000" points="1054.737,-34.8055 1044.214,-36.0366 1053.208,-41.6365 1054.737,-34.8055"/>
<text text-anchor="middle" x="1234.5" y="-57.8" font-family="Times,serif" font-size="14.00" fill="#000000">+ thread safety</text>
</g>
<!-- reachability -->
<g id="node11" class="node">
<title>reachability</title>
<ellipse fill="none" stroke="#000000" cx="1015.5" cy="-279" rx="241.5573" ry="18"/>
<text text-anchor="middle" x="1015.5" y="-275.3" font-family="Times,serif" font-size="14.00" fill="#000000">Tracking Reachability to Reduce Synchronization</text>
</g>
<!-- domani -->
<g id="node12" class="node">
<title>domani</title>
<polygon fill="none" stroke="#000000" points="1147.5,-210 877.5,-210 877.5,-174 1147.5,-174 1147.5,-210"/>
<text text-anchor="middle" x="1012.5" y="-188.3" font-family="Times,serif" font-size="14.00" fill="#000000">Thread&#45;Local Heaps and GC (2002)</text>
</g>
<!-- reachability&#45;&gt;domani -->
<g id="edge7" class="edge">
<title>reachability&#45;&gt;domani</title>
<path fill="none" stroke="#000000" d="M1014.8784,-260.9735C1014.4721,-249.1918 1013.9331,-233.5607 1013.471,-220.1581"/>
<polygon fill="#000000" stroke="#000000" points="1016.9634,-219.8768 1013.1208,-210.0034 1009.9676,-220.1181 1016.9634,-219.8768"/>
</g>
<!-- domani&#45;&gt;tso -->
<g id="edge8" class="edge">
<title>domani&#45;&gt;tso</title>
<path fill="none" stroke="#000000" d="M928.7909,-173.9735C862.7047,-159.7421 770.5373,-139.8942 702.0316,-125.1417"/>
<polygon fill="#000000" stroke="#000000" points="702.6146,-121.6871 692.1018,-123.0034 701.1409,-128.5302 702.6146,-121.6871"/>
</g>
</g>
</svg>
