<?xml version="1.0" encoding="UTF-8" standalone="no"?>
<!DOCTYPE svg PUBLIC "-//W3C//DTD SVG 1.1//EN"
 "http://www.w3.org/Graphics/SVG/1.1/DTD/svg11.dtd">
<!-- Generated by graphviz version 2.40.1 (0)
 -->
<!-- Title: G Pages: 1 -->
<svg width="1714pt" height="502pt"
 viewBox="0.00 0.00 1713.50 502.00" xmlns="http://www.w3.org/2000/svg" xmlns:xlink="http://www.w3.org/1999/xlink">
<g id="graph0" class="graph" transform="scale(1 1) rotate(0) translate(4 498)">
<title>G</title>
<polygon fill="#ffffff" stroke="transparent" points="-4,4 -4,-498 1709.5,-498 1709.5,4 -4,4"/>
<text text-anchor="middle" x="852.75" y="-478.8" font-family="Times,serif" font-size="14.00" fill="#000000">Research in Virtual Machines for Dynamically&#45;Typed Languages</text>
<!-- pic -->
<g id="node1" class="node">
<title>pic</title>
<g id="a_node1"><a xlink:href="http://bibliography.selflanguage.org/_static/pics.pdf" xlink:title="Optimizing Dynamically&#45;Typed Object&#45;Oriented Languages With Polymorphic Inline Caches">
<polygon fill="none" stroke="#000000" points="392.5,-384 88.5,-384 88.5,-348 392.5,-348 392.5,-384"/>
<text text-anchor="middle" x="240.5" y="-362.3" font-family="Times,serif" font-size="14.00" fill="#000000">SELF Polymorphic Inline Caches (1991)</text>
</a>
</g>
</g>
<!-- mpic -->
<g id="node2" class="node">
<title>mpic</title>
<g id="a_node2"><a xlink:href="https://stefan-marr.de/downloads/pldi15-marr-et-al-zero-overhead-metaprogramming.pdf" xlink:title="Zero&#45;Overhead Metaprogramming; Reflection and Metaobject Protocols Fast and without Compromises">
<polygon fill="none" stroke="#000000" points="481,-297 0,-297 0,-261 481,-261 481,-297"/>
<text text-anchor="middle" x="240.5" y="-275.3" font-family="Times,serif" font-size="14.00" fill="#000000">Truffle Dispatch Chains (Multidimensional Inline Caches) (2015)</text>
</a>
</g>
</g>
<!-- pic&#45;&gt;mpic -->
<g id="edge1" class="edge">
<title>pic&#45;&gt;mpic</title>
<path fill="none" stroke="#000000" d="M240.5,-347.9735C240.5,-336.1918 240.5,-320.5607 240.5,-307.1581"/>
<polygon fill="#000000" stroke="#000000" points="244.0001,-307.0033 240.5,-297.0034 237.0001,-307.0034 244.0001,-307.0033"/>
<text text-anchor="middle" x="401.5" y="-318.8" font-family="Times,serif" font-size="14.00" fill="#000000">+ cache for metaprogramming accesses, etc</text>
</g>
<!-- tso -->
<g id="node6" class="node">
<title>tso</title>
<g id="a_node6"><a xlink:href="https://eregon.me/blog/assets/research/thread-safe-objects.pdf" xlink:title="Efficient and Thread&#45;Safe Objects for Dynamically&#45;Typed Languages">
<polygon fill="none" stroke="#000000" points="763,-210 454,-210 454,-174 763,-174 763,-210"/>
<text text-anchor="middle" x="608.5" y="-188.3" font-family="Times,serif" font-size="14.00" fill="#000000">Truffle Thread&#45;Safe Object Model (2016)</text>
</a>
</g>
</g>
<!-- mpic&#45;&gt;tso -->
<g id="edge2" class="edge">
<title>mpic&#45;&gt;tso</title>
<path fill="none" stroke="#000000" d="M316.7498,-260.9735C376.7005,-246.8004 460.2139,-227.0568 522.5346,-212.3233"/>
<polygon fill="#000000" stroke="#000000" points="523.4214,-215.7103 532.3478,-210.0034 521.8108,-208.898 523.4214,-215.7103"/>
<text text-anchor="middle" x="519" y="-231.8" font-family="Times,serif" font-size="14.00" fill="#000000">for efficient sharing</text>
</g>
<!-- om -->
<g id="node3" class="node">
<title>om</title>
<ellipse fill="none" stroke="#000000" cx="601.5" cy="-453" rx="116.1796" ry="18"/>
<text text-anchor="middle" x="601.5" y="-449.3" font-family="Times,serif" font-size="14.00" fill="#000000">Object Representation</text>
</g>
<!-- maps -->
<g id="node4" class="node">
<title>maps</title>
<g id="a_node4"><a xlink:href="http://www.selflanguage.org/_static/published/implementation.pdf" xlink:title="An Efficient Implementation of SELF a Dynamically&#45;Typed Object&#45;Oriented Language Based on Prototypes">
<polygon fill="none" stroke="#000000" points="677,-384 526,-384 526,-348 677,-348 677,-384"/>
<text text-anchor="middle" x="601.5" y="-362.3" font-family="Times,serif" font-size="14.00" fill="#000000">SELF Maps (1989)</text>
</a>
</g>
</g>
<!-- om&#45;&gt;maps -->
<g id="edge3" class="edge">
<title>om&#45;&gt;maps</title>
<path fill="none" stroke="#000000" d="M601.5,-434.9735C601.5,-423.1918 601.5,-407.5607 601.5,-394.1581"/>
<polygon fill="#000000" stroke="#000000" points="605.0001,-394.0033 601.5,-384.0034 598.0001,-394.0034 605.0001,-394.0033"/>
<text text-anchor="middle" x="768.5" y="-405.8" font-family="Times,serif" font-size="14.00" fill="#000000">+ efficient access and lower memory footprint</text>
</g>
<!-- tosm -->
<g id="node5" class="node">
<title>tosm</title>
<g id="a_node5"><a xlink:href="https://chrisseaton.com/rubytruffle/pppj14-om/pppj14-om.pdf" xlink:title="An Object Storage Model for the Truffle Language Implementation Framework">
<polygon fill="none" stroke="#000000" points="717.5,-297 499.5,-297 499.5,-261 717.5,-261 717.5,-297"/>
<text text-anchor="middle" x="608.5" y="-275.3" font-family="Times,serif" font-size="14.00" fill="#000000">Truffle Object Model (2014)</text>
</a>
</g>
</g>
<!-- maps&#45;&gt;tosm -->
<g id="edge4" class="edge">
<title>maps&#45;&gt;tosm</title>
<path fill="none" stroke="#000000" d="M602.9504,-347.9735C603.8984,-336.1918 605.156,-320.5607 606.2344,-307.1581"/>
<polygon fill="#000000" stroke="#000000" points="609.7381,-307.2519 607.0515,-297.0034 602.7606,-306.6904 609.7381,-307.2519"/>
<text text-anchor="middle" x="805" y="-318.8" font-family="Times,serif" font-size="14.00" fill="#000000">+ unboxed values, final assumption, type specialization</text>
</g>
<!-- tosm&#45;&gt;tso -->
<g id="edge5" class="edge">
<title>tosm&#45;&gt;tso</title>
<path fill="none" stroke="#000000" d="M608.5,-260.9735C608.5,-249.1918 608.5,-233.5607 608.5,-220.1581"/>
<polygon fill="#000000" stroke="#000000" points="612.0001,-220.0033 608.5,-210.0034 605.0001,-220.0034 612.0001,-220.0033"/>
<text text-anchor="middle" x="664.5" y="-231.8" font-family="Times,serif" font-size="14.00" fill="#000000">+ thread safety</text>
</g>
<!-- tsc -->
<g id="node10" class="node">
<title>tsc</title>
<g id="a_node10"><a xlink:href="https://eregon.me/blog/assets/research/thread-safe-collections.pdf" xlink:title="Parallelization of Dynamic Languages: Synchronizing Built&#45;in Collections">
<polygon fill="none" stroke="#000000" points="1102,-123 809,-123 809,-87 1102,-87 1102,-123"/>
<text text-anchor="middle" x="955.5" y="-101.3" font-family="Times,serif" font-size="14.00" fill="#000000">Truffle Thread&#45;Safe Collections (2018)</text>
</a>
</g>
</g>
<!-- tso&#45;&gt;tsc -->
<g id="edge10" class="edge">
<title>tso&#45;&gt;tsc</title>
<path fill="none" stroke="#000000" d="M671.9307,-173.9397C708.0453,-163.8483 754.1901,-151.275 795.5,-141 816.9448,-135.666 840.0931,-130.2573 861.9408,-125.3095"/>
<polygon fill="#000000" stroke="#000000" points="862.8907,-128.6833 871.8766,-123.0706 861.3518,-121.8546 862.8907,-128.6833"/>
<text text-anchor="middle" x="871" y="-144.8" font-family="Times,serif" font-size="14.00" fill="#000000">tracking reachability</text>
</g>
<!-- rarc -->
<g id="node13" class="node">
<title>rarc</title>
<g id="a_node13"><a xlink:href="https://dl.acm.org/doi/10.1145/3133841.3133843" xlink:title="Dynamic Atomicity: Optimizing Swift Memory Management">
<polygon fill="none" stroke="#000000" points="790.5,-123 338.5,-123 338.5,-87 790.5,-87 790.5,-123"/>
<text text-anchor="middle" x="564.5" y="-101.3" font-family="Times,serif" font-size="14.00" fill="#000000">Reachability for Dynamic Atomic Reference Counting (2017)</text>
</a>
</g>
</g>
<!-- tso&#45;&gt;rarc -->
<g id="edge6" class="edge">
<title>tso&#45;&gt;rarc</title>
<path fill="none" stroke="#000000" d="M599.3832,-173.9735C593.2476,-161.8418 585.0478,-145.6287 578.1399,-131.9698"/>
<polygon fill="#000000" stroke="#000000" points="581.2416,-130.3474 573.6051,-123.0034 574.995,-133.5066 581.2416,-130.3474"/>
</g>
<!-- glsp -->
<g id="node7" class="node">
<title>glsp</title>
<g id="a_node7"><a xlink:href="https://eregon.me/blog/assets/research/guest-language-safepoints.pdf" xlink:title="Techniques and Applications for Guest&#45;Language Safepoints">
<polygon fill="none" stroke="#000000" points="1105.5,-210 787.5,-210 787.5,-174 1105.5,-174 1105.5,-210"/>
<text text-anchor="middle" x="946.5" y="-188.3" font-family="Times,serif" font-size="14.00" fill="#000000">Truffle Guest&#45;Language Safepoints (2015)</text>
</a>
</g>
</g>
<!-- glsp&#45;&gt;tsc -->
<g id="edge11" class="edge">
<title>glsp&#45;&gt;tsc</title>
<path fill="none" stroke="#000000" d="M948.3648,-173.9735C949.5836,-162.1918 951.2006,-146.5607 952.5871,-133.1581"/>
<polygon fill="#000000" stroke="#000000" points="956.0899,-133.3105 953.6376,-123.0034 949.1271,-132.5901 956.0899,-133.3105"/>
<text text-anchor="middle" x="1034" y="-144.8" font-family="Times,serif" font-size="14.00" fill="#000000">global synchronization</text>
</g>
<!-- collections -->
<g id="node8" class="node">
<title>collections</title>
<ellipse fill="none" stroke="#000000" cx="1312.5" cy="-279" rx="137.2758" ry="18"/>
<text text-anchor="middle" x="1312.5" y="-275.3" font-family="Times,serif" font-size="14.00" fill="#000000">Collections Representation</text>
</g>
<!-- ss -->
<g id="node9" class="node">
<title>ss</title>
<g id="a_node9"><a xlink:href="https://tratt.net/laurie/research/pubs/html/bolz_diekmann_tratt__storage_strategies_for_collections_in_dynamically_typed_languages/" xlink:title="Storage Strategies for Collections in Dynamically Typed Languages">
<polygon fill="none" stroke="#000000" points="1501,-210 1124,-210 1124,-174 1501,-174 1501,-210"/>
<text text-anchor="middle" x="1312.5" y="-188.3" font-family="Times,serif" font-size="14.00" fill="#000000">RPython Storage Strategies for Collections (2013)</text>
</a>
</g>
</g>
<!-- collections&#45;&gt;ss -->
<g id="edge12" class="edge">
<title>collections&#45;&gt;ss</title>
<path fill="none" stroke="#000000" d="M1312.5,-260.9735C1312.5,-249.1918 1312.5,-233.5607 1312.5,-220.1581"/>
<polygon fill="#000000" stroke="#000000" points="1316.0001,-220.0033 1312.5,-210.0034 1309.0001,-220.0034 1316.0001,-220.0033"/>
<text text-anchor="middle" x="1509" y="-231.8" font-family="Times,serif" font-size="14.00" fill="#000000">+ adapt representation dynamically to unboxed values</text>
</g>
<!-- ss&#45;&gt;tsc -->
<g id="edge13" class="edge">
<title>ss&#45;&gt;tsc</title>
<path fill="none" stroke="#000000" d="M1247.0173,-173.9608C1209.7386,-163.8761 1162.1135,-151.3025 1119.5,-141 1097.2867,-135.6296 1073.298,-130.1722 1050.7046,-125.1848"/>
<polygon fill="#000000" stroke="#000000" points="1051.2944,-121.731 1040.7763,-123.0033 1049.7921,-128.5679 1051.2944,-121.731"/>
<text text-anchor="middle" x="1233.5" y="-144.8" font-family="Times,serif" font-size="14.00" fill="#000000">+ thread safety</text>
</g>
<!-- reachability -->
<g id="node11" class="node">
<title>reachability</title>
<ellipse fill="none" stroke="#000000" cx="1015.5" cy="-366" rx="241.5573" ry="18"/>
<text text-anchor="middle" x="1015.5" y="-362.3" font-family="Times,serif" font-size="14.00" fill="#000000">Tracking Reachability to Reduce Synchronization</text>
</g>
<!-- domani -->
<g id="node12" class="node">
<title>domani</title>
<g id="a_node12"><a xlink:href="http://citeseerx.ist.psu.edu/viewdoc/download?doi=10.1.1.63.5846&amp;rep=rep1&amp;type=pdf" xlink:title="Thread&#45;Local Heaps for Java">
<polygon fill="none" stroke="#000000" points="1147.5,-297 877.5,-297 877.5,-261 1147.5,-261 1147.5,-297"/>
<text text-anchor="middle" x="1012.5" y="-275.3" font-family="Times,serif" font-size="14.00" fill="#000000">Thread&#45;Local Heaps and GC (2002)</text>
</a>
</g>
</g>
<!-- reachability&#45;&gt;domani -->
<g id="edge8" class="edge">
<title>reachability&#45;&gt;domani</title>
<path fill="none" stroke="#000000" d="M1014.8784,-347.9735C1014.4721,-336.1918 1013.9331,-320.5607 1013.471,-307.1581"/>
<polygon fill="#000000" stroke="#000000" points="1016.9634,-306.8768 1013.1208,-297.0034 1009.9676,-307.1181 1016.9634,-306.8768"/>
</g>
<!-- domani&#45;&gt;tso -->
<g id="edge9" class="edge">
<title>domani&#45;&gt;tso</title>
<path fill="none" stroke="#000000" d="M928.7909,-260.9735C862.7047,-246.7421 770.5373,-226.8942 702.0316,-212.1417"/>
<polygon fill="#000000" stroke="#000000" points="702.6146,-208.6871 692.1018,-210.0034 701.1409,-215.5302 702.6146,-208.6871"/>
</g>
<!-- brc -->
<g id="node14" class="node">
<title>brc</title>
<g id="a_node14"><a xlink:href="https://iacoma.cs.uiuc.edu/iacoma-papers/pact18.pdf" xlink:title="Biased Reference Counting: Minimizing Atomic Operations in Garbage Collection">
<polygon fill="none" stroke="#000000" points="696,-36 433,-36 433,0 696,0 696,-36"/>
<text text-anchor="middle" x="564.5" y="-14.3" font-family="Times,serif" font-size="14.00" fill="#000000">Biased Reference Counting (2018)</text>
</a>
</g>
</g>
<!-- rarc&#45;&gt;brc -->
<g id="edge7" class="edge">
<title>rarc&#45;&gt;brc</title>
<path fill="none" stroke="#000000" d="M564.5,-86.9735C564.5,-75.1918 564.5,-59.5607 564.5,-46.1581"/>
<polygon fill="#000000" stroke="#000000" points="568.0001,-46.0033 564.5,-36.0034 561.0001,-46.0034 568.0001,-46.0033"/>
<text text-anchor="middle" x="688" y="-57.8" font-family="Times,serif" font-size="14.00" fill="#000000">similar with bias towards a thread</text>
</g>
</g>
</svg>
