<?xml version="1.0" encoding="UTF-8" standalone="no"?>
<!DOCTYPE svg PUBLIC "-//W3C//DTD SVG 1.1//EN"
 "http://www.w3.org/Graphics/SVG/1.1/DTD/svg11.dtd">
<!-- Generated by graphviz version 2.40.1 (0)
 -->
<!-- Title: G Pages: 1 -->
<svg width="2212pt" height="502pt"
 viewBox="0.00 0.00 2211.78 502.00" xmlns="http://www.w3.org/2000/svg" xmlns:xlink="http://www.w3.org/1999/xlink">
<g id="graph0" class="graph" transform="scale(1 1) rotate(0) translate(4 498)">
<title>G</title>
<polygon fill="#ffffff" stroke="transparent" points="-4,4 -4,-498 2207.7785,-498 2207.7785,4 -4,4"/>
<text text-anchor="middle" x="1101.8893" y="-478.8" font-family="Times,serif" font-size="14.00" fill="#000000">Research in Virtual Machines for Dynamically&#45;Typed Languages</text>
<!-- pic -->
<g id="node1" class="node">
<title>pic</title>
<g id="a_node1"><a xlink:href="http://bibliography.selflanguage.org/_static/pics.pdf" xlink:title="Optimizing Dynamically&#45;Typed Object&#45;Oriented Languages With Polymorphic Inline Caches">
<polygon fill="none" stroke="#000000" points="805.7785,-384 501.7785,-384 501.7785,-348 805.7785,-348 805.7785,-384"/>
<text text-anchor="middle" x="653.7785" y="-362.3" font-family="Times,serif" font-size="14.00" fill="#000000">SELF Polymorphic Inline Caches (1991)</text>
</a>
</g>
</g>
<!-- mpic -->
<g id="node2" class="node">
<title>mpic</title>
<g id="a_node2"><a xlink:href="https://stefan-marr.de/downloads/pldi15-marr-et-al-zero-overhead-metaprogramming.pdf" xlink:title="Zero&#45;Overhead Metaprogramming; Reflection and Metaobject Protocols Fast and without Compromises">
<polygon fill="none" stroke="#000000" points="889.2785,-297 408.2785,-297 408.2785,-261 889.2785,-261 889.2785,-297"/>
<text text-anchor="middle" x="648.7785" y="-275.3" font-family="Times,serif" font-size="14.00" fill="#000000">Truffle Dispatch Chains (Multidimensional Inline Caches) (2015)</text>
</a>
</g>
</g>
<!-- pic&#45;&gt;mpic -->
<g id="edge1" class="edge">
<title>pic&#45;&gt;mpic</title>
<path fill="none" stroke="#000000" d="M652.7425,-347.9735C652.0654,-336.1918 651.1671,-320.5607 650.3968,-307.1581"/>
<polygon fill="#000000" stroke="#000000" points="653.8813,-306.786 649.8132,-297.0034 646.8928,-307.1877 653.8813,-306.786"/>
<text text-anchor="middle" x="812.7785" y="-318.8" font-family="Times,serif" font-size="14.00" fill="#000000">+ cache for metaprogramming accesses, etc</text>
</g>
<!-- tso -->
<g id="node6" class="node">
<title>tso</title>
<g id="a_node6"><a xlink:href="https://eregon.me/blog/assets/research/thread-safe-objects.pdf" xlink:title="Efficient and Thread&#45;Safe Objects for Dynamically&#45;Typed Languages">
<polygon fill="none" stroke="#000000" points="804.2785,-210 495.2785,-210 495.2785,-174 804.2785,-174 804.2785,-210"/>
<text text-anchor="middle" x="649.7785" y="-188.3" font-family="Times,serif" font-size="14.00" fill="#000000">Truffle Thread&#45;Safe Object Model (2016)</text>
</a>
</g>
</g>
<!-- mpic&#45;&gt;tso -->
<g id="edge2" class="edge">
<title>mpic&#45;&gt;tso</title>
<path fill="none" stroke="#000000" d="M648.9857,-260.9735C649.1212,-249.1918 649.3008,-233.5607 649.4549,-220.1581"/>
<polygon fill="#000000" stroke="#000000" points="652.9563,-220.043 649.5716,-210.0034 645.9568,-219.9624 652.9563,-220.043"/>
<text text-anchor="middle" x="721.2785" y="-231.8" font-family="Times,serif" font-size="14.00" fill="#000000">for efficient sharing</text>
</g>
<!-- om -->
<g id="node3" class="node">
<title>om</title>
<ellipse fill="none" stroke="#000000" cx="1016.7785" cy="-453" rx="116.1796" ry="18"/>
<text text-anchor="middle" x="1016.7785" y="-449.3" font-family="Times,serif" font-size="14.00" fill="#000000">Object Representation</text>
</g>
<!-- maps -->
<g id="node4" class="node">
<title>maps</title>
<g id="a_node4"><a xlink:href="http://www.selflanguage.org/_static/published/implementation.pdf" xlink:title="An Efficient Implementation of SELF a Dynamically&#45;Typed Object&#45;Oriented Language Based on Prototypes">
<polygon fill="none" stroke="#000000" points="1092.2785,-384 941.2785,-384 941.2785,-348 1092.2785,-348 1092.2785,-384"/>
<text text-anchor="middle" x="1016.7785" y="-362.3" font-family="Times,serif" font-size="14.00" fill="#000000">SELF Maps (1989)</text>
</a>
</g>
</g>
<!-- om&#45;&gt;maps -->
<g id="edge3" class="edge">
<title>om&#45;&gt;maps</title>
<path fill="none" stroke="#000000" d="M1016.7785,-434.9735C1016.7785,-423.1918 1016.7785,-407.5607 1016.7785,-394.1581"/>
<polygon fill="#000000" stroke="#000000" points="1020.2786,-394.0033 1016.7785,-384.0034 1013.2786,-394.0034 1020.2786,-394.0033"/>
<text text-anchor="middle" x="1183.7785" y="-405.8" font-family="Times,serif" font-size="14.00" fill="#000000">+ efficient access and lower memory footprint</text>
</g>
<!-- tosm -->
<g id="node5" class="node">
<title>tosm</title>
<g id="a_node5"><a xlink:href="https://chrisseaton.com/rubytruffle/pppj14-om/pppj14-om.pdf" xlink:title="An Object Storage Model for the Truffle Language Implementation Framework">
<polygon fill="none" stroke="#000000" points="1125.7785,-297 907.7785,-297 907.7785,-261 1125.7785,-261 1125.7785,-297"/>
<text text-anchor="middle" x="1016.7785" y="-275.3" font-family="Times,serif" font-size="14.00" fill="#000000">Truffle Object Model (2014)</text>
</a>
</g>
</g>
<!-- maps&#45;&gt;tosm -->
<g id="edge4" class="edge">
<title>maps&#45;&gt;tosm</title>
<path fill="none" stroke="#000000" d="M1016.7785,-347.9735C1016.7785,-336.1918 1016.7785,-320.5607 1016.7785,-307.1581"/>
<polygon fill="#000000" stroke="#000000" points="1020.2786,-307.0033 1016.7785,-297.0034 1013.2786,-307.0034 1020.2786,-307.0033"/>
<text text-anchor="middle" x="1216.2785" y="-318.8" font-family="Times,serif" font-size="14.00" fill="#000000">+ unboxed values, final assumption, type specialization</text>
</g>
<!-- tosm&#45;&gt;tso -->
<g id="edge5" class="edge">
<title>tosm&#45;&gt;tso</title>
<path fill="none" stroke="#000000" d="M938.6931,-260.9902C914.0741,-255.2782 886.7815,-248.9109 861.7785,-243 819.8441,-233.0864 773.2877,-221.9058 734.5101,-212.5449"/>
<polygon fill="#000000" stroke="#000000" points="734.8518,-209.0268 724.3096,-210.0811 733.2083,-215.8312 734.8518,-209.0268"/>
<text text-anchor="middle" x="917.7785" y="-231.8" font-family="Times,serif" font-size="14.00" fill="#000000">+ thread safety</text>
</g>
<!-- freezing -->
<g id="node8" class="node">
<title>freezing</title>
<g id="a_node8"><a xlink:href="https://doi.org/10.1145/3368826.3377907" xlink:title="Type Freezing: Exploiting Attribute Type Monomorphism in Tracing JIT Compilers">
<polygon fill="none" stroke="#000000" points="1075.2785,-210 822.2785,-210 822.2785,-174 1075.2785,-174 1075.2785,-210"/>
<text text-anchor="middle" x="948.7785" y="-188.3" font-family="Times,serif" font-size="14.00" fill="#000000">Type Freezing Maps (CGO 2020)</text>
</a>
</g>
</g>
<!-- tosm&#45;&gt;freezing -->
<g id="edge7" class="edge">
<title>tosm&#45;&gt;freezing</title>
<path fill="none" stroke="#000000" d="M1002.6889,-260.9735C993.0243,-248.6085 980.0457,-232.0036 969.2448,-218.1847"/>
<polygon fill="#000000" stroke="#000000" points="971.766,-215.7269 962.8501,-210.0034 966.2508,-220.0376 971.766,-215.7269"/>
<text text-anchor="middle" x="1068.7785" y="-231.8" font-family="Times,serif" font-size="14.00" fill="#000000">+ nested type freezing</text>
</g>
<!-- shapesAndBBV -->
<g id="node9" class="node">
<title>shapesAndBBV</title>
<g id="a_node9"><a xlink:href="https://drops.dagstuhl.de/opus/volltexte/2016/6101/pdf/LIPIcs-ECOOP-2016-7.pdf" xlink:title="Interprocedural Type Specialization of JavaScript Programs Without Type Analysis">
<polygon fill="none" stroke="#000000" points="1472.2785,-210 1093.2785,-210 1093.2785,-174 1472.2785,-174 1472.2785,-210"/>
<text text-anchor="middle" x="1282.7785" y="-188.3" font-family="Times,serif" font-size="14.00" fill="#000000">Shapes and Basic Block Versioning (ECOOP 2016)</text>
</a>
</g>
</g>
<!-- tosm&#45;&gt;shapesAndBBV -->
<g id="edge6" class="edge">
<title>tosm&#45;&gt;shapesAndBBV</title>
<path fill="none" stroke="#000000" d="M1092.8338,-260.963C1113.1088,-255.6651 1134.8998,-249.5252 1154.7785,-243 1180.5474,-234.5413 1208.5978,-223.5716 1231.8544,-213.9741"/>
<polygon fill="#000000" stroke="#000000" points="1233.2877,-217.1687 1241.1757,-210.0955 1230.5984,-210.7059 1233.2877,-217.1687"/>
<text text-anchor="middle" x="1282.7785" y="-231.8" font-family="Times,serif" font-size="14.00" fill="#000000">+ basic block versioning</text>
</g>
<!-- tsc -->
<g id="node12" class="node">
<title>tsc</title>
<g id="a_node12"><a xlink:href="https://eregon.me/blog/assets/research/thread-safe-collections.pdf" xlink:title="Parallelization of Dynamic Languages: Synchronizing Built&#45;in Collections">
<polygon fill="none" stroke="#000000" points="1825.2785,-123 1532.2785,-123 1532.2785,-87 1825.2785,-87 1825.2785,-123"/>
<text text-anchor="middle" x="1678.7785" y="-101.3" font-family="Times,serif" font-size="14.00" fill="#000000">Truffle Thread&#45;Safe Collections (2018)</text>
</a>
</g>
</g>
<!-- tso&#45;&gt;tsc -->
<g id="edge12" class="edge">
<title>tso&#45;&gt;tsc</title>
<path fill="none" stroke="#000000" d="M804.6325,-174.7842C807.3688,-174.5176 810.086,-174.2559 812.7785,-174 1060.4065,-150.4677 1348.395,-128.6185 1521.9666,-116.0505"/>
<polygon fill="#000000" stroke="#000000" points="1522.223,-119.5412 1531.9446,-115.3292 1521.7182,-112.5595 1522.223,-119.5412"/>
<text text-anchor="middle" x="1267.2785" y="-144.8" font-family="Times,serif" font-size="14.00" fill="#000000">tracking reachability</text>
</g>
<!-- rarc -->
<g id="node15" class="node">
<title>rarc</title>
<g id="a_node15"><a xlink:href="https://dl.acm.org/doi/10.1145/3133841.3133843" xlink:title="Dynamic Atomicity: Optimizing Swift Memory Management">
<polygon fill="none" stroke="#000000" points="875.7785,-123 423.7785,-123 423.7785,-87 875.7785,-87 875.7785,-123"/>
<text text-anchor="middle" x="649.7785" y="-101.3" font-family="Times,serif" font-size="14.00" fill="#000000">Reachability for Dynamic Atomic Reference Counting (2017)</text>
</a>
</g>
</g>
<!-- tso&#45;&gt;rarc -->
<g id="edge8" class="edge">
<title>tso&#45;&gt;rarc</title>
<path fill="none" stroke="#000000" d="M649.7785,-173.9735C649.7785,-162.1918 649.7785,-146.5607 649.7785,-133.1581"/>
<polygon fill="#000000" stroke="#000000" points="653.2786,-133.0033 649.7785,-123.0034 646.2786,-133.0034 653.2786,-133.0033"/>
</g>
<!-- glsp -->
<g id="node7" class="node">
<title>glsp</title>
<g id="a_node7"><a xlink:href="https://eregon.me/blog/assets/research/guest-language-safepoints.pdf" xlink:title="Techniques and Applications for Guest&#45;Language Safepoints">
<polygon fill="none" stroke="#000000" points="2203.7785,-210 1885.7785,-210 1885.7785,-174 2203.7785,-174 2203.7785,-210"/>
<text text-anchor="middle" x="2044.7785" y="-188.3" font-family="Times,serif" font-size="14.00" fill="#000000">Truffle Guest&#45;Language Safepoints (2015)</text>
</a>
</g>
</g>
<!-- glsp&#45;&gt;tsc -->
<g id="edge13" class="edge">
<title>glsp&#45;&gt;tsc</title>
<path fill="none" stroke="#000000" d="M1968.9431,-173.9735C1909.3183,-159.8004 1826.2587,-140.0568 1764.2768,-125.3233"/>
<polygon fill="#000000" stroke="#000000" points="1765.0552,-121.9109 1754.5168,-123.0034 1763.4363,-128.7212 1765.0552,-121.9109"/>
<text text-anchor="middle" x="1964.2785" y="-144.8" font-family="Times,serif" font-size="14.00" fill="#000000">global synchronization</text>
</g>
<!-- collections -->
<g id="node10" class="node">
<title>collections</title>
<ellipse fill="none" stroke="#000000" cx="1678.7785" cy="-279" rx="137.2758" ry="18"/>
<text text-anchor="middle" x="1678.7785" y="-275.3" font-family="Times,serif" font-size="14.00" fill="#000000">Collections Representation</text>
</g>
<!-- ss -->
<g id="node11" class="node">
<title>ss</title>
<g id="a_node11"><a xlink:href="https://tratt.net/laurie/research/pubs/html/bolz_diekmann_tratt__storage_strategies_for_collections_in_dynamically_typed_languages/" xlink:title="Storage Strategies for Collections in Dynamically Typed Languages">
<polygon fill="none" stroke="#000000" points="1867.2785,-210 1490.2785,-210 1490.2785,-174 1867.2785,-174 1867.2785,-210"/>
<text text-anchor="middle" x="1678.7785" y="-188.3" font-family="Times,serif" font-size="14.00" fill="#000000">RPython Storage Strategies for Collections (2013)</text>
</a>
</g>
</g>
<!-- collections&#45;&gt;ss -->
<g id="edge14" class="edge">
<title>collections&#45;&gt;ss</title>
<path fill="none" stroke="#000000" d="M1678.7785,-260.9735C1678.7785,-249.1918 1678.7785,-233.5607 1678.7785,-220.1581"/>
<polygon fill="#000000" stroke="#000000" points="1682.2786,-220.0033 1678.7785,-210.0034 1675.2786,-220.0034 1682.2786,-220.0033"/>
<text text-anchor="middle" x="1875.2785" y="-231.8" font-family="Times,serif" font-size="14.00" fill="#000000">+ adapt representation dynamically to unboxed values</text>
</g>
<!-- ss&#45;&gt;tsc -->
<g id="edge15" class="edge">
<title>ss&#45;&gt;tsc</title>
<path fill="none" stroke="#000000" d="M1678.7785,-173.9735C1678.7785,-162.1918 1678.7785,-146.5607 1678.7785,-133.1581"/>
<polygon fill="#000000" stroke="#000000" points="1682.2786,-133.0033 1678.7785,-123.0034 1675.2786,-133.0034 1682.2786,-133.0033"/>
<text text-anchor="middle" x="1734.7785" y="-144.8" font-family="Times,serif" font-size="14.00" fill="#000000">+ thread safety</text>
</g>
<!-- reachability -->
<g id="node13" class="node">
<title>reachability</title>
<ellipse fill="none" stroke="#000000" cx="241.7785" cy="-366" rx="241.5573" ry="18"/>
<text text-anchor="middle" x="241.7785" y="-362.3" font-family="Times,serif" font-size="14.00" fill="#000000">Tracking Reachability to Reduce Synchronization</text>
</g>
<!-- domani -->
<g id="node14" class="node">
<title>domani</title>
<g id="a_node14"><a xlink:href="http://citeseerx.ist.psu.edu/viewdoc/download?doi=10.1.1.63.5846&amp;rep=rep1&amp;type=pdf" xlink:title="Thread&#45;Local Heaps for Java">
<polygon fill="none" stroke="#000000" points="385.7785,-297 115.7785,-297 115.7785,-261 385.7785,-261 385.7785,-297"/>
<text text-anchor="middle" x="250.7785" y="-275.3" font-family="Times,serif" font-size="14.00" fill="#000000">Thread&#45;Local Heaps and GC (2002)</text>
</a>
</g>
</g>
<!-- reachability&#45;&gt;domani -->
<g id="edge10" class="edge">
<title>reachability&#45;&gt;domani</title>
<path fill="none" stroke="#000000" d="M243.6434,-347.9735C244.8622,-336.1918 246.4792,-320.5607 247.8656,-307.1581"/>
<polygon fill="#000000" stroke="#000000" points="251.3685,-307.3105 248.9161,-297.0034 244.4056,-306.5901 251.3685,-307.3105"/>
</g>
<!-- domani&#45;&gt;tso -->
<g id="edge11" class="edge">
<title>domani&#45;&gt;tso</title>
<path fill="none" stroke="#000000" d="M333.4516,-260.9735C398.7199,-246.7421 489.7467,-226.8942 557.4045,-212.1417"/>
<polygon fill="#000000" stroke="#000000" points="558.1866,-215.5535 567.2114,-210.0034 556.6953,-208.7142 558.1866,-215.5535"/>
</g>
<!-- brc -->
<g id="node16" class="node">
<title>brc</title>
<g id="a_node16"><a xlink:href="https://iacoma.cs.uiuc.edu/iacoma-papers/pact18.pdf" xlink:title="Biased Reference Counting: Minimizing Atomic Operations in Garbage Collection">
<polygon fill="none" stroke="#000000" points="781.2785,-36 518.2785,-36 518.2785,0 781.2785,0 781.2785,-36"/>
<text text-anchor="middle" x="649.7785" y="-14.3" font-family="Times,serif" font-size="14.00" fill="#000000">Biased Reference Counting (2018)</text>
</a>
</g>
</g>
<!-- rarc&#45;&gt;brc -->
<g id="edge9" class="edge">
<title>rarc&#45;&gt;brc</title>
<path fill="none" stroke="#000000" d="M649.7785,-86.9735C649.7785,-75.1918 649.7785,-59.5607 649.7785,-46.1581"/>
<polygon fill="#000000" stroke="#000000" points="653.2786,-46.0033 649.7785,-36.0034 646.2786,-46.0034 653.2786,-46.0033"/>
<text text-anchor="middle" x="773.2785" y="-57.8" font-family="Times,serif" font-size="14.00" fill="#000000">similar with bias towards a thread</text>
</g>
</g>
</svg>
